<svg width="32" height="32" viewBox="0 0 32 32" fill="none" xmlns="http://www.w3.org/2000/svg">
<rect width="32" height="32" rx="16" fill="#009444"/>
<path d="M22.0822 12.7726L14.1743 8.81866C8.86239 6.15807 6.68219 8.33827 9.34277 13.6502L10.1465 15.2576C10.3774 15.7288 10.3774 16.2738 10.1465 16.745L9.34277 18.3432C6.68219 23.6551 8.85315 25.8353 14.1743 23.1747L22.0822 19.2208C25.6296 17.4471 25.6296 14.5463 22.0822 12.7726ZM19.0982 16.6896H14.1097C13.7309 16.6896 13.4168 16.3755 13.4168 15.9967C13.4168 15.6179 13.7309 15.3038 14.1097 15.3038H19.0982C19.477 15.3038 19.7911 15.6179 19.7911 15.9967C19.7911 16.3755 19.477 16.6896 19.0982 16.6896Z" fill="white"/>
</svg>
